<?xml version="1.0" encoding="UTF-8"?>
<svg width="306px" height="38px" viewBox="0 0 306 38" version="1.1" xmlns="http://www.w3.org/2000/svg" xmlns:xlink="http://www.w3.org/1999/xlink">
    <!-- Generator: Sketch 61 (89581) - https://sketch.com -->
    <title>Artboard</title>
    <desc>Created with Sketch.</desc>
    <defs>
        <path d="M5.52468794,0.0655531915 C5.91075177,0.0655531915 6.21569504,0.15406383 6.43951773,0.331085106 C6.66320567,0.508106383 6.77504965,0.733808511 6.77504965,1.00819149 C6.77504965,1.23831915 6.68961702,1.44853191 6.51848227,1.63882979 C6.34734752,1.82912766 6.13888652,1.9242766 5.89323404,1.9242766 C5.7265461,1.9242766 5.59489362,1.88444681 5.49841135,1.80478723 C5.40179433,1.72512766 5.358,1.61448936 5.36675887,1.47287234 C5.36675887,1.26044681 5.43480851,1.07678723 5.57077305,0.921893617 C5.70673759,0.767 5.88878723,0.654148936 6.11705674,0.583340426 C6.11705674,0.503680851 6.05776596,0.430659574 5.93931915,0.364276596 C5.82087234,0.297893617 5.67830496,0.264702128 5.51148227,0.264702128 C5.24831206,0.264702128 4.99376596,0.379765957 4.74811348,0.609893617 C4.5639078,0.77806383 4.41029078,1.04580851 4.28739716,1.41312766 C4.1646383,1.78044681 4.01102128,2.32257447 3.8268156,3.03951064 L3.68195745,3.61040426 L3.68195745,3.62368085 L5.23510638,3.62368085 L5.15614184,3.88921277 L3.60299291,3.88921277 L1.24699291,12.7579787 C0.773070922,12.7756809 0.378248227,12.8376383 0.0623900709,12.9438511 L2.45787234,3.88921277 L1.2732695,3.88921277 L1.35223404,3.62368085 L2.53683688,3.62368085 L2.53683688,3.61040426 C2.72993617,2.88461702 2.92950355,2.29380851 3.13567376,1.83797872 C3.34197872,1.38214894 3.58978723,1.01261702 3.87936879,0.729382979 C4.08122695,0.525808511 4.32917021,0.364276596 4.62306383,0.244787234 C4.9170922,0.125297872 5.21758865,0.0655531915 5.52468794,0.0655531915 Z M8.8612766,3.43780851 C9.42292199,3.43780851 9.86382979,3.61261702 10.1841348,3.96223404 C10.5044397,4.31185106 10.6645248,4.83185106 10.6645248,5.52223404 C10.6645248,6.22146809 10.5110426,6.97159574 10.2039433,7.77261702 C9.89670922,8.5736383 9.45364539,9.25074468 8.87448227,9.80393617 C8.29531915,10.3571277 7.62412057,10.6337234 6.86061702,10.6337234 C6.29910638,10.6337234 5.85819858,10.4589149 5.53789362,10.1092979 C5.21758865,9.75968085 5.05736879,9.23968085 5.05736879,8.54929787 C5.05736879,7.85006383 5.21098582,7.09993617 5.51808511,6.29891489 C5.8251844,5.49789362 6.26838298,4.82078723 6.8475461,4.26759574 C7.42670922,3.71440426 8.0979078,3.43780851 8.8612766,3.43780851 Z M24.3958652,1.5925 C24.3193262,1.86218085 24.1317518,2.53928723 23.8335461,3.62368085 L25.5709007,3.62368085 L25.5314184,3.88921277 L23.7545816,3.88921277 L22.2277092,9.31934043 C22.2012979,9.42555319 22.188227,9.52291489 22.188227,9.61142553 C22.188227,9.78844681 22.2407801,9.92121277 22.346156,10.0097234 C22.4513972,10.098234 22.5874965,10.1424894 22.7541844,10.1424894 C22.9735603,10.1424894 23.1775745,10.0473404 23.366227,9.85704255 C23.5548794,9.66674468 23.7413759,9.31934043 23.9255816,8.81482979 L24.109922,8.29704255 L24.3600213,8.29704255 L24.0835106,9.13346809 C23.899305,9.68223404 23.6601206,10.0694681 23.366227,10.2951702 C23.0721986,10.5208723 22.7102553,10.6337234 22.2803972,10.6337234 C21.8854397,10.6337234 21.5915461,10.5363617 21.3984468,10.3416383 C21.2053475,10.1469149 21.1088652,9.87695745 21.1088652,9.53176596 C21.1088652,9.3016383 21.1483475,9.04938298 21.2273121,8.775 L22.6225319,3.88921277 L21.4379291,3.88921277 L21.5036879,3.62368085 L22.6884255,3.62368085 C22.9294965,2.78642553 23.0874255,2.23738298 23.1622128,1.97682979 L24.3958652,1.5925 Z M29.2769787,0.0419042553 C29.2686241,0.0748191489 29.2591915,0.109117021 29.2488156,0.144797872 C28.9710922,1.10320213 28.3571631,3.21431915 27.4070284,6.47814894 C27.8809504,5.39831915 28.3547376,4.6216383 28.8286596,4.14810638 C29.3024468,3.67457447 29.8201631,3.43780851 30.3818085,3.43780851 C31.0924894,3.43780851 31.4478298,3.77414894 31.4478298,4.44682979 C31.4478298,4.73006383 31.3820709,5.06197872 31.2504184,5.44257447 L29.9737801,9.31934043 C29.9035745,9.53176596 29.8684043,9.69993617 29.8684043,9.82385106 C29.8684043,10.0362766 29.9737801,10.1424894 30.1842624,10.1424894 C30.359844,10.1424894 30.5286879,10.0429149 30.6910638,9.84376596 C30.8534397,9.64461702 31.0222837,9.29278723 31.1978652,8.7882766 L31.3688652,8.29704255 L31.6189645,8.29704255 L31.2899007,9.26623404 C30.9740426,10.1778936 30.4431206,10.6337234 29.6972695,10.6337234 C29.0830709,10.6337234 28.7759716,10.3593404 28.7759716,9.81057447 C28.7759716,9.54504255 28.8461773,9.19985106 28.9865887,8.775 L30.2369504,4.97789362 C30.3246738,4.73006383 30.3686028,4.50878723 30.3686028,4.31406383 C30.3686028,4.01312766 30.2281915,3.86265957 29.9473688,3.86265957 C29.6227518,3.86265957 29.2738794,4.06844681 28.9010213,4.48002128 C28.5280284,4.89159574 28.1528794,5.46912766 27.7755745,6.21261702 C27.3982695,6.95610638 27.0472411,7.81908511 26.7226241,8.80155319 L26.2488369,10.4478511 L25.1037163,10.4478511 L27.7098156,1.5923617 C27.7238298,1.54437234 27.7707234,1.38560638 27.8506312,1.11606383 C27.869227,1.0531383 27.9371418,0.826606383 28.0541064,0.436606383 L29.2769787,0.0419042553 Z M36.9431418,3.43780851 C37.2239645,3.43780851 37.4565461,3.51304255 37.6407518,3.66351064 C37.8250922,3.81397872 37.9171277,4.03082979 37.9171277,4.31406383 C37.9171277,5.031 37.5178582,5.65942553 36.7194539,6.19934043 C35.9209149,6.73925532 35.0083759,7.17738298 33.9817021,7.5137234 C33.8850851,7.9562766 33.836844,8.38555319 33.836844,8.80155319 C33.836844,9.65125532 34.1396312,10.0761064 34.7450709,10.0761064 C35.4996809,10.0761064 36.1753262,9.63355319 36.7720071,8.74844681 L36.9826241,8.85465957 C36.7018014,9.34146809 36.3223404,9.75968085 35.8441064,10.1092979 C35.3658723,10.4589149 34.8635177,10.6337234 34.3370426,10.6337234 C33.7929149,10.6337234 33.3673688,10.4744043 33.0602695,10.155766 C32.7531702,9.83712766 32.5995532,9.37244681 32.5995532,8.7617234 C32.5995532,8.08904255 32.7948085,7.33006383 33.1853191,6.48478723 C33.5758298,5.63951064 34.104461,4.9203617 34.7713475,4.32734043 C35.438234,3.73431915 36.1622553,3.43780851 36.9431418,3.43780851 Z M16.5678652,3.43780851 C16.8047589,3.43780851 16.9934113,3.50861702 17.1338227,3.65023404 C17.274234,3.79185106 17.3444397,3.97329787 17.3444397,4.19457447 C17.3444397,4.46010638 17.2522695,4.68580851 17.0680638,4.87168085 C16.8837234,5.05755319 16.6687943,5.15048936 16.4231418,5.15048936 C16.2652128,5.15048936 16.1378723,5.10844681 16.0413901,5.0243617 C15.9449078,4.9402766 15.8966667,4.823 15.8966667,4.67253191 C15.8966667,4.46895745 15.9492199,4.2963617 16.0545957,4.15474468 C16.1598369,4.01312766 16.304695,3.90248936 16.4889007,3.82282979 C16.4538652,3.78742553 16.4054894,3.7697234 16.3441773,3.7697234 C15.8702553,3.7697234 15.354695,4.28529787 14.7974965,5.31644681 C14.2402979,6.34759574 13.7161135,7.70844681 13.2246738,9.399 L12.9613688,10.4478511 L11.8162482,10.4478511 L13.3958085,4.75219149 C13.4571206,4.55746809 13.487844,4.38487234 13.487844,4.23440426 C13.487844,4.03082979 13.3958085,3.92904255 13.2114681,3.92904255 C13.0185035,3.92904255 12.840766,4.03304255 12.6783901,4.24104255 C12.5161489,4.44904255 12.3514823,4.79644681 12.1847943,5.28325532 L12.0136596,5.77448936 L11.763695,5.77448936 L12.0927589,4.80529787 C12.408617,3.8936383 12.9394043,3.43780851 13.6853901,3.43780851 C14.1854539,3.43780851 14.4355532,3.69448936 14.4355532,4.20785106 C14.4355532,4.45568085 14.3741064,4.81857447 14.2513475,5.29653191 L13.8301135,6.96938298 C14.3039007,5.68597872 14.7492553,4.77653191 15.1660426,4.24104255 C15.5829645,3.70555319 16.0501489,3.43780851 16.5678652,3.43780851 Z M8.78231206,3.70334043 C8.33480142,3.70334043 7.91141135,3.991 7.51214184,4.56631915 C7.11300709,5.1416383 6.79270213,5.86078723 6.5513617,6.72376596 C6.31002128,7.58674468 6.18941844,8.41653191 6.18941844,9.21312766 C6.18941844,9.61142553 6.25086525,9.90351064 6.37362411,10.089383 C6.49651773,10.2752553 6.68517021,10.3681915 6.93958156,10.3681915 C7.38722695,10.3681915 7.81048227,10.0805319 8.20975177,9.50521277 C8.60902128,8.92989362 8.92932624,8.21074468 9.17066667,7.34776596 C9.41200709,6.48478723 9.53260993,5.655 9.53260993,4.85840426 C9.53260993,4.46010638 9.47116312,4.16802128 9.34840426,3.98214894 C9.22551064,3.7962766 9.03685816,3.70334043 8.78231206,3.70334043 Z M36.6535603,3.69006383 C36.3727376,3.69006383 36.0590355,3.85602128 35.7124539,4.18793617 C35.3658723,4.51985106 35.0412553,4.96019149 34.7384681,5.50895745 C34.4356809,6.0577234 34.2053901,6.64189362 34.047461,7.26146809 C34.8810355,6.96938298 35.4777163,6.68614894 35.8375035,6.41176596 C36.1622553,6.15508511 36.4145106,5.84308511 36.5944043,5.47576596 C36.7742979,5.10844681 36.8641773,4.7123617 36.8641773,4.28751064 C36.8641773,4.04853191 36.8466596,3.88921277 36.8114894,3.80955319 C36.7764539,3.72989362 36.723766,3.69006383 36.6535603,3.69006383 Z" id="path-1"/>
        <path d="M30.0585487,0.124627451 C30.7545766,0.124627451 31.4288875,0.229627451 32.0814814,0.439627451 C32.7339397,0.649627451 33.3212471,0.995509804 33.843268,1.47727451 L32.1280371,3.27462745 C31.8795139,2.91639216 31.5469733,2.65396078 31.130551,2.48719608 C30.7142645,2.32043137 30.2761253,2.23698039 29.8161334,2.23698039 C29.5427715,2.23698039 29.2786392,2.26786275 29.0238724,2.32962745 C28.7689698,2.39139216 28.5390418,2.49021569 28.3339524,2.62609804 C28.1288631,2.76198039 27.9642216,2.93807843 27.8398921,3.1542549 C27.7155626,3.37043137 27.6535336,3.62668627 27.6535336,3.92315686 C27.6535336,4.36786275 27.8088097,4.70756863 28.1196334,4.94227451 C28.4303213,5.17698039 28.8156613,5.38080392 29.2755174,5.5537451 C29.7353735,5.72668627 30.2387993,5.89345098 30.7856589,6.05403922 C31.3325186,6.21462745 31.8359443,6.43698039 32.2958005,6.72109804 C32.7557923,7.00521569 33.1409965,7.38198039 33.4518202,7.85139216 C33.7625081,8.32080392 33.91792,8.94462745 33.91792,9.72286275 C33.91792,10.4269804 33.7873469,11.0416078 33.5263364,11.5666078 C33.265326,12.0916078 32.9141903,12.5269804 32.4729292,12.8728627 C32.0316682,13.2187451 31.5190128,13.4781569 30.9348271,13.651098 C30.3506415,13.8240392 29.7353735,13.9105098 29.0890232,13.9105098 C28.2686659,13.9105098 27.4795267,13.7746275 26.7213341,13.5028627 C25.9631415,13.231098 25.3105476,12.7740392 24.7636879,12.1316863 L26.5348399,10.4269804 C26.8206891,10.8593333 27.1966636,11.1960196 27.6627633,11.436902 C28.1288631,11.6777843 28.6229234,11.7981569 29.1449443,11.7981569 C29.418442,11.7981569 29.6919397,11.761098 29.9653016,11.6869804 C30.2387993,11.6128627 30.4873225,11.5016863 30.7111427,11.353451 C30.9348271,11.2052157 31.1150777,11.016902 31.2517587,10.7883725 C31.3884397,10.5598431 31.456848,10.2972745 31.456848,10.0008039 C31.456848,9.51903922 31.3014362,9.14845098 30.9907483,8.88903922 C30.6800603,8.62962745 30.2947204,8.41043137 29.8348643,8.23131373 C29.3750081,8.05219608 28.8715824,7.88227451 28.3247227,7.72168627 C27.7777274,7.56109804 27.2744374,7.34190196 26.8144455,7.06396078 C26.3545893,6.78601961 25.9692494,6.41543137 25.6585615,5.95219608 C25.3478735,5.48896078 25.1924617,4.86815686 25.1924617,4.08992157 C25.1924617,3.4105098 25.3322645,2.8237451 25.6120058,2.32962745 C25.8916114,1.8355098 26.2582204,1.42484314 26.7119687,1.0974902 C27.1655812,0.770137255 27.684616,0.526098039 28.2686659,0.365509804 C28.8528515,0.204921569 29.4495244,0.124627451 30.0585487,0.124627451 Z M46.7014594,0.578666667 C47.559007,0.893666667 48.2986044,1.3537451 48.920116,1.95903922 C49.5414919,2.56433333 50.0263225,3.29315686 50.3743364,4.1455098 C50.7223503,4.99786275 50.8963573,5.94903922 50.8963573,6.99903922 C50.8963573,8.02433333 50.7223503,8.95698039 50.3743364,9.79698039 C50.0263225,10.6369804 49.5414919,11.3596275 48.920116,11.9649216 C48.2986044,12.5702157 47.559007,13.0427843 46.7014594,13.3824902 C45.8437761,13.7221961 44.8992251,13.8981569 43.8675348,13.9105098 C42.8483318,13.9105098 41.9130104,13.746902 41.0615708,13.419549 C40.2102668,13.0921961 39.476913,12.6289608 38.861645,12.0298431 C38.246377,11.4307255 37.7648039,10.711098 37.41679,9.87109804 C37.0686404,9.03109804 36.8947691,8.09845098 36.8947691,7.07315686 C36.8947691,6.02315686 37.0686404,5.06896078 37.41679,4.21043137 C37.7648039,3.35190196 38.246377,2.61992157 38.861645,2.01462745 C39.476913,1.40933333 40.2102668,0.943078431 41.0615708,0.61572549 C41.9130104,0.288372549 42.8483318,0.124627451 43.8675348,0.124627451 C44.8992251,0.11227451 45.8437761,0.263666667 46.7014594,0.578666667 Z M56.6698051,0.458156863 L56.6698051,8.68521569 C56.6698051,9.00639216 56.7194826,9.34307843 56.8189733,9.69513725 C56.9183283,10.0471961 57.0831056,10.3713922 57.3130336,10.6678627 C57.5429617,10.9643333 57.847406,11.2083725 58.2265023,11.3998431 C58.6055986,11.5913137 59.0748202,11.6869804 59.6341671,11.6869804 C60.1935139,11.6869804 60.6627355,11.5913137 61.0418318,11.3998431 C61.4209281,11.2083725 61.7253724,10.9643333 61.9553005,10.6678627 C62.1852285,10.3713922 62.3500058,10.0471961 62.4493608,9.69513725 C62.5488515,9.34307843 62.598529,9.00639216 62.598529,8.68521569 L62.598529,0.458156863 L64.9477587,0.458156863 L64.9477587,8.75933333 C64.9477587,9.54992157 64.810942,10.2633725 64.53758,10.899549 C64.2640824,11.5357255 63.8912297,12.076098 63.4188863,12.5208039 C62.9465429,12.9655098 62.3873318,13.3083725 61.7409814,13.5492549 C61.0946311,13.7901373 60.3923596,13.9105098 59.6341671,13.9105098 C58.8759745,13.9105098 58.173703,13.7901373 57.5273527,13.5492549 C56.8811381,13.3083725 56.3186694,12.9655098 55.8400824,12.5208039 C55.3616311,12.076098 54.9886427,11.5357255 54.7215244,10.899549 C54.4542703,10.2633725 54.3205754,9.54992157 54.3205754,8.75933333 L54.3205754,0.458156863 L56.6698051,0.458156863 Z M88.333507,0.124627451 C89.2283805,0.124627451 90.0581032,0.282196078 90.8225394,0.597196078 C91.5868399,0.912196078 92.2984768,1.44639216 92.9571787,2.19992157 L91.1301056,3.53403922 C90.6454107,3.01521569 90.1761891,2.66933333 89.7224408,2.49639216 C89.2688283,2.32345098 88.812094,2.23698039 88.3522378,2.23698039 C87.6685615,2.23698039 87.0501717,2.3574902 86.4970684,2.59837255 C85.9439652,2.8392549 85.4685,3.17278431 85.0708086,3.59896078 C84.6731172,4.02513725 84.3654153,4.52227451 84.1479745,5.0905098 C83.9303979,5.6587451 83.8216775,6.27021569 83.8216775,6.92492157 C83.8216775,7.62903922 83.9303979,8.27756863 84.1479745,8.8705098 C84.3654153,9.46345098 84.6731172,9.97609804 85.0708086,10.408451 C85.4685,10.8408039 85.9439652,11.1805098 86.4970684,11.4275686 C87.0501717,11.6746275 87.6685615,11.7981569 88.3522378,11.7981569 C88.8866102,11.7981569 89.4055093,11.6716078 89.908935,11.4183725 C90.4123608,11.1651373 90.8815824,10.7605098 91.3165998,10.2046275 L93.2555151,11.5758039 C92.658978,12.391098 91.9318677,12.9840392 91.0741845,13.3546275 C90.2165012,13.7252157 89.3030325,13.9105098 88.333507,13.9105098 C87.3143039,13.9105098 86.3789826,13.746902 85.5275429,13.419549 C84.676239,13.0921961 83.9428852,12.6289608 83.3276172,12.0298431 C82.7123492,11.4307255 82.2307761,10.711098 81.8826265,9.87109804 C81.5346125,9.03109804 81.3606056,8.09845098 81.3606056,7.07315686 C81.3606056,6.02315686 81.5346125,5.06896078 81.8826265,4.21043137 C82.2307761,3.35190196 82.7123492,2.61992157 83.3276172,2.01462745 C83.9428852,1.40933333 84.676239,0.943078431 85.5275429,0.61572549 C86.3789826,0.288372549 87.3143039,0.124627451 88.333507,0.124627451 Z M113.117555,0.124627451 C113.813718,0.124627451 114.487893,0.229627451 115.140487,0.439627451 C115.793081,0.649627451 116.380389,0.995509804 116.90241,1.47727451 L115.187179,3.27462745 C114.93852,2.91639216 114.605979,2.65396078 114.189693,2.48719608 C113.77327,2.32043137 113.335131,2.23698039 112.875275,2.23698039 C112.601777,2.23698039 112.337645,2.26786275 112.082878,2.32962745 C111.828111,2.39139216 111.598183,2.49021569 111.393094,2.62609804 C111.188005,2.76198039 111.023227,2.93807843 110.899034,3.1542549 C110.774704,3.37043137 110.712539,3.62668627 110.712539,3.92315686 C110.712539,4.36786275 110.867951,4.70756863 111.178639,4.94227451 C111.489327,5.17698039 111.874667,5.38080392 112.334523,5.5537451 C112.794515,5.72668627 113.297805,5.89345098 113.8448,6.05403922 C114.39166,6.21462745 114.89495,6.43698039 115.354942,6.72109804 C115.814798,7.00521569 116.200138,7.38198039 116.510826,7.85139216 C116.821514,8.32080392 116.976926,8.94462745 116.976926,9.72286275 C116.976926,10.4269804 116.846353,11.0416078 116.585478,11.5666078 C116.324332,12.0916078 115.973332,12.5269804 115.532071,12.8728627 C115.09081,13.2187451 114.578019,13.4781569 113.993833,13.651098 C113.409647,13.8240392 112.794515,13.9105098 112.148165,13.9105098 C111.327807,13.9105098 110.538532,13.7746275 109.78034,13.5028627 C109.022147,13.231098 108.369689,12.7740392 107.822694,12.1316863 L109.593846,10.4269804 C109.879831,10.8593333 110.255805,11.1960196 110.721905,11.436902 C111.188005,11.6777843 111.682065,11.7981569 112.204086,11.7981569 C112.477584,11.7981569 112.750945,11.761098 113.024443,11.6869804 C113.297805,11.6128627 113.546464,11.5016863 113.770148,11.353451 C113.993833,11.2052157 114.174084,11.016902 114.3109,10.7883725 C114.447581,10.5598431 114.515854,10.2972745 114.515854,10.0008039 C114.515854,9.51903922 114.360578,9.14845098 114.04989,8.88903922 C113.739066,8.62962745 113.353726,8.41043137 112.89387,8.23131373 C112.434014,8.05219608 111.930588,7.88227451 111.383729,7.72168627 C110.836869,7.56109804 110.333443,7.34190196 109.873587,7.06396078 C109.413731,6.78601961 109.028391,6.41543137 108.717567,5.95219608 C108.406879,5.48896078 108.251468,4.86815686 108.251468,4.08992157 C108.251468,3.4105098 108.391406,2.8237451 108.671012,2.32962745 C108.950753,1.8355098 109.317362,1.42484314 109.770974,1.0974902 C110.224723,0.770137255 110.743622,0.526098039 111.327807,0.365509804 C111.911993,0.204921569 112.50853,0.124627451 113.117555,0.124627451 Z M4.62190719,0.458156863 C5.2557703,0.458156863 5.86791647,0.516901961 6.45834571,0.634254902 C7.04877494,0.751607843 7.57391763,0.95227451 8.03377378,1.23639216 C8.49362993,1.5205098 8.86037471,1.90345098 9.13373666,2.38521569 C9.40723434,2.86698039 9.54391531,3.47845098 9.54391531,4.21962745 C9.54391531,5.17080392 9.27978306,5.96756863 8.75151856,6.60992157 C8.22325406,7.25227451 7.46818329,7.64139216 6.48630626,7.77727451 L9.99141995,13.5769804 L7.15749536,13.5769804 L4.09988631,8.01815686 L2.38465545,8.01815686 L2.38465545,13.5769804 L0.0354257541,13.5769804 L0.0354257541,0.458156863 L4.62190719,0.458156863 Z M21.7682436,0.458156863 L21.7682436,2.5705098 L15.3732842,2.5705098 L15.3732842,5.79462745 L21.4325812,5.79462745 L21.4325812,7.90698039 L15.3732842,7.90698039 L15.3732842,11.4646275 L22.1037703,11.4646275 L22.1037703,13.5769804 L13.0241903,13.5769804 L13.0241903,0.458156863 L21.7682436,0.458156863 Z M73.6668376,0.458156863 C74.3008364,0.458156863 74.9129826,0.516901961 75.5032761,0.634254902 C76.0937053,0.751607843 76.618848,0.95227451 77.0787042,1.23639216 C77.5386961,1.5205098 77.9053051,1.90345098 78.1788028,2.38521569 C78.4521647,2.86698039 78.5888457,3.47845098 78.5888457,4.21962745 C78.5888457,5.17080392 78.3248492,5.96756863 77.7965847,6.60992157 C77.2683202,7.25227451 76.5132494,7.64139216 75.5313724,7.77727451 L79.0363503,13.5769804 L76.2024258,13.5769804 L73.1448167,8.01815686 L71.4295858,8.01815686 L71.4295858,13.5769804 L69.0804919,13.5769804 L69.0804919,0.458156863 L73.6668376,0.458156863 Z M104.827249,0.458156863 L104.827249,2.5705098 L98.43229,2.5705098 L98.43229,5.79462745 L104.491723,5.79462745 L104.491723,7.90698039 L98.43229,7.90698039 L98.43229,11.4646275 L105.162912,11.4646275 L105.162912,13.5769804 L96.0831961,13.5769804 L96.0831961,0.458156863 L104.827249,0.458156863 Z M43.8861299,2.23698039 C43.2025893,2.23698039 42.5841995,2.3574902 42.0310963,2.59837255 C41.477993,2.8392549 41.0026636,3.17278431 40.6048364,3.59896078 C40.207145,4.02513725 39.8994432,4.52227451 39.6820023,5.0905098 C39.4644258,5.6587451 39.3557053,6.27021569 39.3557053,6.92492157 C39.3557053,7.62903922 39.4644258,8.27756863 39.6820023,8.8705098 C39.8994432,9.46345098 40.207145,9.97609804 40.6048364,10.408451 C41.0026636,10.8408039 41.477993,11.1805098 42.0310963,11.4275686 C42.5841995,11.6746275 43.2025893,11.7981569 43.8861299,11.7981569 C44.5698063,11.7981569 45.1913179,11.6746275 45.750529,11.4275686 C46.3098759,11.1805098 46.7884629,10.8408039 47.1861543,10.408451 C47.5839814,9.97609804 47.8915476,9.46345098 48.1091241,8.8705098 C48.326565,8.27756863 48.4352854,7.62903922 48.4352854,6.92492157 C48.4352854,6.27021569 48.326565,5.6587451 48.1091241,5.0905098 C47.8915476,4.52227451 47.5839814,4.02513725 47.1861543,3.59896078 C46.7884629,3.17278431 46.3098759,2.8392549 45.750529,2.59837255 C45.1913179,2.3574902 44.5698063,2.23698039 43.8861299,2.23698039 Z M4.41681787,2.45933333 L2.38465545,2.45933333 L2.38465545,6.01698039 L4.21172854,6.01698039 C4.54739095,6.01698039 4.88291763,6.00160784 5.21858005,5.97072549 C5.55410673,5.93984314 5.86180858,5.86572549 6.14141415,5.74837255 C6.42101972,5.63101961 6.64796172,5.45190196 6.82183295,5.21101961 C6.99597564,4.97013725 7.08297912,4.63345098 7.08297912,4.20109804 C7.08297912,3.81815686 7.00208353,3.50933333 6.84056381,3.27462745 C6.67890835,3.03992157 6.46771114,2.86396078 6.2067007,2.74660784 C5.94569026,2.6292549 5.65671926,2.55198039 5.33965197,2.51492157 C5.02272042,2.47786275 4.71515429,2.45933333 4.41681787,2.45933333 Z M73.4617483,2.45933333 L71.4295858,2.45933333 L71.4295858,6.01698039 L73.2567947,6.01698039 C73.5923213,6.01698039 73.9279838,6.00160784 74.2635104,5.97072549 C74.5990371,5.93984314 74.906739,5.86572549 75.1863445,5.74837255 C75.4660858,5.63101961 75.6928921,5.45190196 75.8668991,5.21101961 C76.040906,4.97013725 76.1279095,4.63345098 76.1279095,4.20109804 C76.1279095,3.81815686 76.0471497,3.50933333 75.8854942,3.27462745 C75.7239745,3.03992157 75.5126415,2.86396078 75.2516311,2.74660784 C74.9906206,2.6292549 74.7016497,2.55198039 74.3847181,2.51492157 C74.0677865,2.47786275 73.7600847,2.45933333 73.4617483,2.45933333 Z" id="path-3"/>
        <path d="M14.2181655,0.0477979798 L14.2181655,8.52416162 C14.2181655,8.85507071 14.267536,9.2019596 14.3664119,9.56468687 C14.4651529,9.92741414 14.628777,10.2614343 14.8574191,10.5668889 C15.0859263,10.8723434 15.3884892,11.1237778 15.7652428,11.3210505 C16.1419964,11.5183232 16.6083183,11.6168889 17.1642086,11.6168889 C17.7200989,11.6168889 18.186286,11.5183232 18.5631745,11.3210505 C18.9399281,11.1237778 19.242491,10.8723434 19.4709982,10.5668889 C19.6995054,10.2614343 19.8632644,9.92741414 19.9620054,9.56468687 C20.0608813,9.2019596 20.1102518,8.85507071 20.1102518,8.52416162 L20.1102518,0.0477979798 L22.4448291,0.0477979798 L22.4448291,8.60052525 C22.4448291,9.41507071 22.3089928,10.1501414 22.0373201,10.805596 C21.7655126,11.4610505 21.394964,12.017798 20.9255396,12.4759798 C20.4561151,12.9341616 19.9002248,13.2874141 19.2580036,13.535596 C18.6156475,13.7837778 17.9177158,13.907798 17.1642086,13.907798 C16.4107014,13.907798 15.7127698,13.7837778 15.0704137,13.535596 C14.4280576,13.2874141 13.8691996,12.9341616 13.3935701,12.4759798 C12.9180755,12.017798 12.5473921,11.4610505 12.2817896,10.805596 C12.0163219,10.1501414 11.8834532,9.41507071 11.8834532,8.60052525 L11.8834532,0.0477979798 L14.2181655,0.0477979798 Z M40.7019335,0.0477979798 L40.7019335,8.52416162 C40.7019335,8.85507071 40.751304,9.2019596 40.8501799,9.56468687 C40.9489209,9.92741414 41.1126799,10.2614343 41.3411871,10.5668889 C41.5696942,10.8723434 41.8722572,11.1237778 42.2491457,11.3210505 C42.6258993,11.5183232 43.0920863,11.6168889 43.6479766,11.6168889 C44.2038669,11.6168889 44.6701888,11.5183232 45.0469424,11.3210505 C45.423696,11.1237778 45.726259,10.8723434 45.9549011,10.5668889 C46.1834083,10.2614343 46.3470324,9.92741414 46.4459083,9.56468687 C46.5446493,9.2019596 46.5940198,8.85507071 46.5940198,8.52416162 L46.5940198,0.0477979798 L48.928732,0.0477979798 L48.928732,8.60052525 C48.928732,9.41507071 48.7928957,10.1501414 48.5210881,10.805596 C48.2492806,11.4610505 47.878732,12.017798 47.4093076,12.4759798 C46.940018,12.9341616 46.3841277,13.2874141 45.7417716,13.535596 C45.0994155,13.7837778 44.4014838,13.907798 43.6479766,13.907798 C42.8944694,13.907798 42.1965378,13.7837778 41.5543165,13.535596 C40.9119604,13.2874141 40.3529676,12.9341616 39.8773381,12.4759798 C39.4018435,12.017798 39.031295,11.4610505 38.7656924,10.805596 C38.5000899,10.1501414 38.3673561,9.41507071 38.3673561,8.60052525 L38.3673561,0.0477979798 L40.7019335,0.0477979798 Z M8.53597122,0.0477979798 L8.53597122,2.22416162 L2.40296763,2.22416162 L2.40296763,5.77507071 L8.18390288,5.77507071 L8.18390288,7.95143434 L2.40296763,7.95143434 L2.40296763,13.5641616 L0.0682553957,13.5641616 L0.0682553957,0.0477979798 L8.53597122,0.0477979798 Z M35.5941097,0.0477979798 L35.5941097,2.22416162 L31.5733813,2.22416162 L31.5733813,13.5641616 L29.238804,13.5641616 L29.238804,2.22416162 L25.2180755,2.22416162 L25.2180755,0.0477979798 L35.5941097,0.0477979798 Z M57.5940647,0.0477979798 C58.2240108,0.0477979798 58.8323741,0.108323232 59.4191547,0.229232323 C60.0058004,0.350141414 60.5276978,0.556888889 60.9848471,0.849616162 C61.4418615,1.14234343 61.806205,1.53688889 62.0780126,2.03325253 C62.3496853,2.52961616 62.4856565,3.15961616 62.4856565,3.92325253 C62.4856565,4.90325253 62.2231565,5.72416162 61.6981565,6.3859798 C61.1731565,7.04779798 60.4227518,7.44870707 59.4469424,7.58870707 L62.9302608,13.5641616 L60.1139838,13.5641616 L57.0751349,7.83688889 L55.3705036,7.83688889 L55.3705036,13.5641616 L53.0359263,13.5641616 L53.0359263,0.0477979798 L57.5940647,0.0477979798 Z M74.6343076,0.0477979798 L74.6343076,2.22416162 L68.2790018,2.22416162 L68.2790018,5.5459798 L74.3008543,5.5459798 L74.3008543,7.72234343 L68.2790018,7.72234343 L68.2790018,11.387798 L74.9678957,11.387798 L74.9678957,13.5641616 L65.9442896,13.5641616 L65.9442896,0.0477979798 L74.6343076,0.0477979798 Z M57.3902428,2.10961616 L55.3705036,2.10961616 L55.3705036,5.77507071 L57.1864209,5.77507071 C57.5198741,5.77507071 57.8534622,5.75923232 58.1869155,5.72741414 C58.5205036,5.69559596 58.8261691,5.61923232 59.1040468,5.49832323 C59.3820594,5.37741414 59.607464,5.19286869 59.7803957,4.94468687 C59.9533273,4.69650505 60.0397932,4.34961616 60.0397932,3.90416162 C60.0397932,3.50961616 59.9595324,3.19143434 59.7990108,2.94961616 C59.6383543,2.70779798 59.4283273,2.52650505 59.1689299,2.40559596 C58.9095324,2.28468687 58.6223471,2.20507071 58.3073741,2.16688889 C57.9924011,2.12870707 57.6866007,2.10961616 57.3902428,2.10961616 Z" id="path-5"/>
        <path d="M18.9454868,0.1868 C19.076557,0.260266667 19.185057,0.3668 19.2598377,0.495333333 L30.9314737,20.552 L24.4936711,31.5653333 C24.342886,31.8232 24.0630702,31.9821333 23.7600044,31.9821333 L0.866912281,31.9821333 C0.399872807,31.9821333 0.0213464912,31.6109333 0.0213464912,31.1529333 C0.0213464912,31.0084 0.0598245614,30.8664 0.133109649,30.7409333 L17.7915526,0.4944 C18.0236447,0.0969333333 18.5403114,-0.0408 18.9454868,0.1868 Z" id="path-7"/>
        <path d="M6.94581944,0.179578313 C7.07314583,0.25260241 7.17870139,0.358626506 7.25140278,0.486650602 L18.7693611,20.7493133 C18.9940625,21.1446506 18.8571042,21.6481325 18.4635139,21.8738313 C18.3396181,21.9448675 18.1993611,21.982241 18.0567292,21.982241 L7.01469444,21.982241 C6.72045833,21.982241 6.44878472,21.824 6.30259028,21.5675542 L0.0639930556,10.6218916 L5.82627083,0.486650602 C6.05097222,0.091313253 6.55222917,-0.0461204819 6.94581944,0.179578313 Z" id="path-9"/>
    </defs>
    <g id="Artboard" stroke="none" stroke-width="1" fill="none" fill-rule="evenodd">
        <path d="M222.615972,16.620264 C226.849889,16.620264 229.416564,13.9583231 229.416564,9.810132 C229.416564,5.66194085 226.849889,3 222.615972,3 L217.526497,3 L217.526497,16.620264 L222.615972,16.620264 Z M222.440473,13.5368492 L220.992605,13.5368492 L220.992605,6.06123197 L222.440473,6.06123197 C224.678087,6.06123197 225.928519,7.5031166 225.928519,9.810132 C225.928519,12.0949646 224.678087,13.5368492 222.440473,13.5368492 Z M233.913729,16.7977267 C234.966724,16.7977267 235.953907,16.4428013 236.282968,16.1100587 L236.282968,16.620264 L239.595514,16.620264 L239.595514,10.4978 C239.595514,7.90240772 237.994084,6.39397458 235.186098,6.39397458 C232.641361,6.39397458 230.952181,7.92459056 230.666995,9.85449768 L233.913729,9.85449768 C234.067291,9.41084087 234.440227,9.12246395 235.076411,9.12246395 C235.910032,9.12246395 236.282968,9.67703495 236.282968,10.3203373 L236.282968,10.9636397 C235.888095,10.6752628 234.922849,10.4090687 234.111166,10.4090687 C231.961301,10.4090687 230.315997,11.6513077 230.315997,13.5812149 C230.315997,15.6885847 231.961301,16.7977267 233.913729,16.7977267 Z M234.8351,14.4907113 C234.155041,14.4907113 233.474982,14.2023344 233.474982,13.5146663 C233.474982,12.8491811 234.155041,12.5608042 234.8351,12.5608042 C235.471284,12.5608042 236.063594,12.8269983 236.282968,13.2484723 L236.282968,13.8252261 C236.063594,14.2245172 235.471284,14.4907113 234.8351,14.4907113 Z M245.650234,16.8199096 C246.418043,16.8199096 247.163914,16.6868125 247.558787,16.5093498 L247.558787,13.559032 C247.251664,13.6921291 246.834853,13.7808604 246.461918,13.7808604 C245.781859,13.7808604 245.408923,13.4481178 245.408923,12.6717184 L245.408923,9.34429235 L247.471038,9.34429235 L247.471038,6.63798582 L245.408923,6.63798582 L245.408923,3.88731362 L242.008627,3.88731362 L242.008627,6.63798582 L240.560759,6.63798582 L240.560759,9.34429235 L242.008627,9.34429235 L242.008627,13.1819237 C242.008627,15.7107675 243.324871,16.8199096 245.650234,16.8199096 Z M252.253389,16.7977267 C253.306384,16.7977267 254.293567,16.4428013 254.622628,16.1100587 L254.622628,16.620264 L257.935174,16.620264 L257.935174,10.4978 C257.935174,7.90240772 256.333744,6.39397458 253.525758,6.39397458 C250.98102,6.39397458 249.291841,7.92459056 249.006655,9.85449768 L252.253389,9.85449768 C252.406951,9.41084087 252.779887,9.12246395 253.416071,9.12246395 C254.249692,9.12246395 254.622628,9.67703495 254.622628,10.3203373 L254.622628,10.9636397 C254.227754,10.6752628 253.262509,10.4090687 252.450826,10.4090687 C250.300961,10.4090687 248.655657,11.6513077 248.655657,13.5812149 C248.655657,15.6885847 250.300961,16.7977267 252.253389,16.7977267 Z M253.17476,14.4907113 C252.494701,14.4907113 251.814641,14.2023344 251.814641,13.5146663 C251.814641,12.8491811 252.494701,12.5608042 253.17476,12.5608042 C253.810944,12.5608042 254.403254,12.8269983 254.622628,13.2484723 L254.622628,13.8252261 C254.403254,14.2245172 253.810944,14.4907113 253.17476,14.4907113 Z M223.471531,36 C226.827952,36 228.802317,33.9813615 229.28494,31.1863236 L225.774957,31.1863236 C225.423959,32.2067343 224.700025,32.8722195 223.471531,32.8722195 C221.606852,32.8722195 220.553858,31.1863236 220.553858,28.9680396 C220.553858,26.7275727 221.606852,25.0638597 223.471531,25.0638597 C224.700025,25.0638597 225.423959,25.7293449 225.774957,26.7275727 L229.28494,26.7275727 C228.802317,23.9547177 226.827952,21.9360792 223.471531,21.9360792 C219.698299,21.9360792 217,24.8420313 217,28.9680396 C217,33.0940479 219.698299,36 223.471531,36 Z M235.186098,36 C238.191521,36 240.231698,33.8704473 240.231698,30.7870325 C240.231698,27.7036177 238.191521,25.574065 235.186098,25.574065 C232.202613,25.574065 230.140498,27.7036177 230.140498,30.7870325 C230.140498,33.8704473 232.202613,36 235.186098,36 Z M235.186098,33.1162308 C234.133103,33.1162308 233.540794,32.1623686 233.540794,30.7870325 C233.540794,29.4116964 234.133103,28.4356514 235.186098,28.4356514 C236.26103,28.4356514 236.85334,29.4116964 236.85334,30.7870325 C236.85334,32.1623686 236.26103,33.1162308 235.186098,33.1162308 Z M245.01405,35.7781716 L245.01405,29.7000733 C245.167612,29.0124053 245.694109,28.635297 246.286419,28.635297 C247.054227,28.635297 247.405226,29.2342337 247.405226,30.0771816 L247.405226,35.7781716 L250.827459,35.7781716 L250.827459,29.7000733 C251.002958,29.0124053 251.507518,28.635297 252.099827,28.635297 C252.867636,28.635297 253.218634,29.2342337 253.218634,30.0771816 L253.218634,35.7781716 L256.662805,35.7781716 L256.662805,29.2342337 C256.662805,26.9937668 255.390436,25.574065 253.328321,25.574065 C251.880454,25.574065 250.871333,26.1508189 250.279024,26.7719384 C249.686714,26.0620875 248.809219,25.574065 247.558787,25.574065 C246.461918,25.574065 245.51861,25.995539 245.01405,26.6166585 L245.01405,25.7958934 L241.569879,25.7958934 L241.569879,35.7781716 L245.01405,35.7781716 Z M261.883904,35.7781716 L261.883904,29.7000733 C262.037466,29.0124053 262.563964,28.635297 263.156273,28.635297 C263.924082,28.635297 264.27508,29.2342337 264.27508,30.0771816 L264.27508,35.7781716 L267.697313,35.7781716 L267.697313,29.7000733 C267.872812,29.0124053 268.377372,28.635297 268.969682,28.635297 C269.737491,28.635297 270.088489,29.2342337 270.088489,30.0771816 L270.088489,35.7781716 L273.53266,35.7781716 L273.53266,29.2342337 C273.53266,26.9937668 272.260291,25.574065 270.198176,25.574065 C268.750308,25.574065 267.741188,26.1508189 267.148878,26.7719384 C266.556569,26.0620875 265.679073,25.574065 264.428642,25.574065 C263.331772,25.574065 262.388464,25.995539 261.883904,26.6166585 L261.883904,25.7958934 L258.439734,25.7958934 L258.439734,35.7781716 L261.883904,35.7781716 Z M279.828691,36 C282.834114,36 284.874291,33.8704473 284.874291,30.7870325 C284.874291,27.7036177 282.834114,25.574065 279.828691,25.574065 C276.845206,25.574065 274.783091,27.7036177 274.783091,30.7870325 C274.783091,33.8704473 276.845206,36 279.828691,36 Z M279.828691,33.1162308 C278.775696,33.1162308 278.183387,32.1623686 278.183387,30.7870325 C278.183387,29.4116964 278.775696,28.4356514 279.828691,28.4356514 C280.903623,28.4356514 281.495933,29.4116964 281.495933,30.7870325 C281.495933,32.1623686 280.903623,33.1162308 279.828691,33.1162308 Z M289.656643,35.7781716 L289.656643,29.744439 C289.832142,29.056771 290.402514,28.6574798 291.082573,28.6574798 C291.960069,28.6574798 292.376879,29.2564165 292.376879,30.0771816 L292.376879,35.7781716 L295.799113,35.7781716 L295.799113,29.2342337 C295.799113,27.0159496 294.504807,25.574065 292.311067,25.574065 C291.170323,25.574065 290.205078,26.0399047 289.656643,26.6610242 L289.656643,25.7958934 L286.212472,25.7958934 L286.212472,35.7781716 L289.656643,35.7781716 Z M301.678334,36 C304.091447,36 306,34.8243095 306,32.6947568 C306,31.0754094 305.034755,30.1215473 303.235889,29.7000733 L301.283461,29.2342337 C300.822775,29.1455023 300.603402,28.9902224 300.603402,28.6796627 C300.603402,28.2360059 301.020212,28.0141775 301.524772,28.0141775 C302.314518,28.0141775 302.621642,28.3912857 302.731329,28.8127597 L305.91225,28.8127597 C305.605127,26.8384869 304.135322,25.574065 301.437022,25.574065 C299.111659,25.574065 297.225043,26.8163041 297.225043,28.9458568 C297.225043,30.6983011 298.299975,31.4968834 299.94528,31.8518088 L301.87577,32.2511 C302.358393,32.3620142 302.643579,32.4951112 302.643579,32.8722195 C302.643579,33.3380592 302.204831,33.5598876 301.634459,33.5598876 C301.020212,33.5598876 300.537589,33.2493278 300.384028,32.6947568 L297.027607,32.6947568 C297.33473,34.8464923 299.155534,36 301.678334,36 Z" id="DataCommons" fill="#04273C" fill-rule="nonzero"/>
        <line x1="197.5" y1="2" x2="197.5" y2="36" id="Line" stroke="#04273C" stroke-linecap="square"/>
        <g id="logomark-horizontal-eps" transform="translate(0.000000, 3.000000)">
            <g id="Group-3" transform="translate(59.000000, 22.000000)">
                <mask id="mask-2" fill="white">
                    <use xlink:href="#path-1"/>
                </mask>
                <g id="Clip-2"/>
                <polygon id="Fill-1" fill="#00263C" mask="url(#mask-2)" points="0.0539007092 12.9585106 37.924539 12.9585106 37.924539 0.0304255319 0.0539007092 0.0304255319"/>
            </g>
            <g id="Group-6" transform="translate(60.000000, 0.000000)">
                <mask id="mask-4" fill="white">
                    <use xlink:href="#path-3"/>
                </mask>
                <g id="Clip-5"/>
                <polygon id="Fill-4" fill="#00263C" mask="url(#mask-4)" points="0.0217169374 13.9203922 116.983712 13.9203922 116.983712 0.118039216 0.0217169374 0.118039216"/>
            </g>
            <g id="Group-9" transform="translate(102.000000, 19.000000)">
                <mask id="mask-6" fill="white">
                    <use xlink:href="#path-5"/>
                </mask>
                <g id="Clip-8"/>
                <polygon id="Fill-7" fill="#00263C" mask="url(#mask-6)" points="0.059352518 13.9179798 74.9730216 13.9179798 74.9730216 0.0367676768 0.059352518 0.0367676768"/>
            </g>
            <g id="Group-12">
                <mask id="mask-8" fill="white">
                    <use xlink:href="#path-7"/>
                </mask>
                <g id="Clip-11"/>
                <polygon id="Fill-10" fill="#00263C" mask="url(#mask-8)" points="0.00543859649 31.9973333 30.9401754 31.9973333 30.9401754 0.0773333333 0.00543859649 0.0773333333"/>
            </g>
            <g id="Group-15" transform="translate(31.000000, 10.000000)">
                <mask id="mask-10" fill="white">
                    <use xlink:href="#path-9"/>
                </mask>
                <g id="Clip-14"/>
                <polygon id="Fill-13" fill="#00263C" mask="url(#mask-10)" points="0.0580555556 21.9973494 18.8838889 21.9973494 18.8838889 0.0662650602 0.0580555556 0.0662650602"/>
            </g>
        </g>
    </g>
</svg>